<mxfile host="app.diagrams.net" agent="Mozilla/5.0 (Windows NT 10.0; Win64; x64) AppleWebKit/537.36 (KHTML, like Gecko) Chrome/127.0.0.0 Safari/537.36" version="24.7.10">
  <diagram name="Página-1" id="TS4RMzjwnxim2rDIjCIZ">
    <mxGraphModel dx="1195" dy="643" grid="1" gridSize="10" guides="1" tooltips="1" connect="1" arrows="1" fold="1" page="1" pageScale="1" pageWidth="827" pageHeight="1169" math="0" shadow="0">
      <root>
        <mxCell id="0" />
        <mxCell id="1" parent="0" />
        <mxCell id="q4BTK1dGNXAb8OCcBCUD-1" value="&lt;font style=&quot;font-size: 20px;&quot;&gt;Cardinalidade&lt;/font&gt;" style="text;html=1;align=center;verticalAlign=middle;resizable=0;points=[];autosize=1;rounded=0;glass=0;rotation=0;fillColor=#f5f5f5;fontColor=#333333;strokeColor=#666666;" vertex="1" parent="1">
          <mxGeometry x="339" y="30" width="150" height="40" as="geometry" />
        </mxCell>
        <mxCell id="q4BTK1dGNXAb8OCcBCUD-2" value="Quantas vezes um registo de uma entidade estão associados a outra entidade." style="text;html=1;align=center;verticalAlign=middle;resizable=0;points=[];autosize=1;strokeColor=none;fillColor=none;" vertex="1" parent="1">
          <mxGeometry x="189" y="80" width="450" height="30" as="geometry" />
        </mxCell>
        <mxCell id="q4BTK1dGNXAb8OCcBCUD-5" value="Relacao muitos para muitos." style="text;html=1;align=center;verticalAlign=middle;resizable=0;points=[];autosize=1;strokeColor=#d6b656;fillColor=#fff2cc;" vertex="1" parent="1">
          <mxGeometry x="329" y="535" width="180" height="30" as="geometry" />
        </mxCell>
        <mxCell id="q4BTK1dGNXAb8OCcBCUD-9" style="edgeStyle=orthogonalEdgeStyle;rounded=0;orthogonalLoop=1;jettySize=auto;html=1;exitX=1;exitY=0.5;exitDx=0;exitDy=0;entryX=0;entryY=0.5;entryDx=0;entryDy=0;endArrow=none;endFill=0;" edge="1" parent="1" source="q4BTK1dGNXAb8OCcBCUD-6" target="q4BTK1dGNXAb8OCcBCUD-8">
          <mxGeometry relative="1" as="geometry">
            <mxPoint x="319" y="240" as="targetPoint" />
          </mxGeometry>
        </mxCell>
        <mxCell id="q4BTK1dGNXAb8OCcBCUD-35" value="Text" style="edgeLabel;html=1;align=center;verticalAlign=middle;resizable=0;points=[];" vertex="1" connectable="0" parent="q4BTK1dGNXAb8OCcBCUD-9">
          <mxGeometry x="0.4889" relative="1" as="geometry">
            <mxPoint as="offset" />
          </mxGeometry>
        </mxCell>
        <mxCell id="q4BTK1dGNXAb8OCcBCUD-6" value="Entity" style="rounded=1;arcSize=10;whiteSpace=wrap;html=1;align=center;" vertex="1" parent="1">
          <mxGeometry x="169" y="220" width="100" height="40" as="geometry" />
        </mxCell>
        <mxCell id="q4BTK1dGNXAb8OCcBCUD-7" value="Entity" style="rounded=1;arcSize=10;whiteSpace=wrap;html=1;align=center;" vertex="1" parent="1">
          <mxGeometry x="539" y="220" width="100" height="40" as="geometry" />
        </mxCell>
        <mxCell id="q4BTK1dGNXAb8OCcBCUD-12" style="edgeStyle=orthogonalEdgeStyle;rounded=0;orthogonalLoop=1;jettySize=auto;html=1;exitX=1;exitY=0.5;exitDx=0;exitDy=0;entryX=0;entryY=0.5;entryDx=0;entryDy=0;endArrow=none;endFill=0;" edge="1" parent="1" source="q4BTK1dGNXAb8OCcBCUD-8" target="q4BTK1dGNXAb8OCcBCUD-7">
          <mxGeometry relative="1" as="geometry" />
        </mxCell>
        <mxCell id="q4BTK1dGNXAb8OCcBCUD-8" value="Relationship" style="shape=rhombus;perimeter=rhombusPerimeter;whiteSpace=wrap;html=1;align=center;" vertex="1" parent="1">
          <mxGeometry x="359" y="210" width="120" height="60" as="geometry" />
        </mxCell>
        <mxCell id="q4BTK1dGNXAb8OCcBCUD-13" value="1" style="text;strokeColor=none;fillColor=none;spacingLeft=4;spacingRight=4;overflow=hidden;rotatable=0;points=[[0,0.5],[1,0.5]];portConstraint=eastwest;fontSize=12;whiteSpace=wrap;html=1;" vertex="1" parent="1">
          <mxGeometry x="269" y="210" width="40" height="30" as="geometry" />
        </mxCell>
        <mxCell id="q4BTK1dGNXAb8OCcBCUD-18" value="1" style="text;strokeColor=none;fillColor=none;spacingLeft=4;spacingRight=4;overflow=hidden;rotatable=0;points=[[0,0.5],[1,0.5]];portConstraint=eastwest;fontSize=12;whiteSpace=wrap;html=1;" vertex="1" parent="1">
          <mxGeometry x="519" y="210" width="40" height="30" as="geometry" />
        </mxCell>
        <mxCell id="q4BTK1dGNXAb8OCcBCUD-19" style="edgeStyle=orthogonalEdgeStyle;rounded=0;orthogonalLoop=1;jettySize=auto;html=1;exitX=1;exitY=0.5;exitDx=0;exitDy=0;entryX=0;entryY=0.5;entryDx=0;entryDy=0;endArrow=none;endFill=0;" edge="1" parent="1" source="q4BTK1dGNXAb8OCcBCUD-20" target="q4BTK1dGNXAb8OCcBCUD-23">
          <mxGeometry relative="1" as="geometry">
            <mxPoint x="319" y="440" as="targetPoint" />
          </mxGeometry>
        </mxCell>
        <mxCell id="q4BTK1dGNXAb8OCcBCUD-20" value="Entity" style="rounded=1;arcSize=10;whiteSpace=wrap;html=1;align=center;" vertex="1" parent="1">
          <mxGeometry x="169" y="420" width="100" height="40" as="geometry" />
        </mxCell>
        <mxCell id="q4BTK1dGNXAb8OCcBCUD-21" value="Entity" style="rounded=1;arcSize=10;whiteSpace=wrap;html=1;align=center;" vertex="1" parent="1">
          <mxGeometry x="539" y="420" width="100" height="40" as="geometry" />
        </mxCell>
        <mxCell id="q4BTK1dGNXAb8OCcBCUD-22" style="edgeStyle=orthogonalEdgeStyle;rounded=0;orthogonalLoop=1;jettySize=auto;html=1;exitX=1;exitY=0.5;exitDx=0;exitDy=0;entryX=0;entryY=0.5;entryDx=0;entryDy=0;endArrow=none;endFill=0;" edge="1" parent="1" source="q4BTK1dGNXAb8OCcBCUD-23" target="q4BTK1dGNXAb8OCcBCUD-21">
          <mxGeometry relative="1" as="geometry" />
        </mxCell>
        <mxCell id="q4BTK1dGNXAb8OCcBCUD-23" value="Relationship" style="shape=rhombus;perimeter=rhombusPerimeter;whiteSpace=wrap;html=1;align=center;" vertex="1" parent="1">
          <mxGeometry x="359" y="410" width="120" height="60" as="geometry" />
        </mxCell>
        <mxCell id="q4BTK1dGNXAb8OCcBCUD-24" value="1" style="text;strokeColor=none;fillColor=none;spacingLeft=4;spacingRight=4;overflow=hidden;rotatable=0;points=[[0,0.5],[1,0.5]];portConstraint=eastwest;fontSize=12;whiteSpace=wrap;html=1;" vertex="1" parent="1">
          <mxGeometry x="269" y="410" width="40" height="30" as="geometry" />
        </mxCell>
        <mxCell id="q4BTK1dGNXAb8OCcBCUD-25" value="N" style="text;strokeColor=none;fillColor=none;spacingLeft=4;spacingRight=4;overflow=hidden;rotatable=0;points=[[0,0.5],[1,0.5]];portConstraint=eastwest;fontSize=12;whiteSpace=wrap;html=1;" vertex="1" parent="1">
          <mxGeometry x="519" y="410" width="40" height="30" as="geometry" />
        </mxCell>
        <mxCell id="q4BTK1dGNXAb8OCcBCUD-26" style="edgeStyle=orthogonalEdgeStyle;rounded=0;orthogonalLoop=1;jettySize=auto;html=1;exitX=1;exitY=0.5;exitDx=0;exitDy=0;entryX=0;entryY=0.5;entryDx=0;entryDy=0;endArrow=none;endFill=0;" edge="1" parent="1" source="q4BTK1dGNXAb8OCcBCUD-27" target="q4BTK1dGNXAb8OCcBCUD-30">
          <mxGeometry relative="1" as="geometry">
            <mxPoint x="319" y="615" as="targetPoint" />
          </mxGeometry>
        </mxCell>
        <mxCell id="q4BTK1dGNXAb8OCcBCUD-27" value="Entity" style="rounded=1;arcSize=10;whiteSpace=wrap;html=1;align=center;" vertex="1" parent="1">
          <mxGeometry x="169" y="595" width="100" height="40" as="geometry" />
        </mxCell>
        <mxCell id="q4BTK1dGNXAb8OCcBCUD-28" value="Entity" style="rounded=1;arcSize=10;whiteSpace=wrap;html=1;align=center;" vertex="1" parent="1">
          <mxGeometry x="539" y="595" width="100" height="40" as="geometry" />
        </mxCell>
        <mxCell id="q4BTK1dGNXAb8OCcBCUD-29" style="edgeStyle=orthogonalEdgeStyle;rounded=0;orthogonalLoop=1;jettySize=auto;html=1;exitX=1;exitY=0.5;exitDx=0;exitDy=0;entryX=0;entryY=0.5;entryDx=0;entryDy=0;endArrow=none;endFill=0;" edge="1" parent="1" source="q4BTK1dGNXAb8OCcBCUD-30" target="q4BTK1dGNXAb8OCcBCUD-28">
          <mxGeometry relative="1" as="geometry" />
        </mxCell>
        <mxCell id="q4BTK1dGNXAb8OCcBCUD-30" value="Relationship" style="shape=rhombus;perimeter=rhombusPerimeter;whiteSpace=wrap;html=1;align=center;" vertex="1" parent="1">
          <mxGeometry x="359" y="585" width="120" height="60" as="geometry" />
        </mxCell>
        <mxCell id="q4BTK1dGNXAb8OCcBCUD-31" value="N" style="text;strokeColor=none;fillColor=none;spacingLeft=4;spacingRight=4;overflow=hidden;rotatable=0;points=[[0,0.5],[1,0.5]];portConstraint=eastwest;fontSize=12;whiteSpace=wrap;html=1;" vertex="1" parent="1">
          <mxGeometry x="269" y="585" width="40" height="30" as="geometry" />
        </mxCell>
        <mxCell id="q4BTK1dGNXAb8OCcBCUD-32" value="N" style="text;strokeColor=none;fillColor=none;spacingLeft=4;spacingRight=4;overflow=hidden;rotatable=0;points=[[0,0.5],[1,0.5]];portConstraint=eastwest;fontSize=12;whiteSpace=wrap;html=1;" vertex="1" parent="1">
          <mxGeometry x="519" y="585" width="40" height="30" as="geometry" />
        </mxCell>
        <mxCell id="q4BTK1dGNXAb8OCcBCUD-34" value="Relacao 1 para muitos&lt;span style=&quot;background-color: initial;&quot;&gt;.&lt;/span&gt;" style="text;html=1;align=center;verticalAlign=middle;resizable=0;points=[];autosize=1;strokeColor=#d6b656;fillColor=#fff2cc;" vertex="1" parent="1">
          <mxGeometry x="344" y="350" width="150" height="30" as="geometry" />
        </mxCell>
        <mxCell id="q4BTK1dGNXAb8OCcBCUD-41" style="edgeStyle=orthogonalEdgeStyle;rounded=0;orthogonalLoop=1;jettySize=auto;html=1;entryX=0;entryY=0.5;entryDx=0;entryDy=0;endArrow=none;endFill=0;" edge="1" parent="1" source="q4BTK1dGNXAb8OCcBCUD-36" target="q4BTK1dGNXAb8OCcBCUD-39">
          <mxGeometry relative="1" as="geometry" />
        </mxCell>
        <mxCell id="q4BTK1dGNXAb8OCcBCUD-47" value="1" style="edgeLabel;html=1;align=center;verticalAlign=middle;resizable=0;points=[];" vertex="1" connectable="0" parent="q4BTK1dGNXAb8OCcBCUD-41">
          <mxGeometry x="-0.7508" relative="1" as="geometry">
            <mxPoint x="2" y="-10" as="offset" />
          </mxGeometry>
        </mxCell>
        <mxCell id="q4BTK1dGNXAb8OCcBCUD-36" value="Cliente" style="whiteSpace=wrap;html=1;align=center;" vertex="1" parent="1">
          <mxGeometry x="40" y="780" width="100" height="40" as="geometry" />
        </mxCell>
        <mxCell id="q4BTK1dGNXAb8OCcBCUD-43" style="edgeStyle=orthogonalEdgeStyle;rounded=0;orthogonalLoop=1;jettySize=auto;html=1;entryX=0;entryY=0.5;entryDx=0;entryDy=0;endArrow=none;endFill=0;" edge="1" parent="1" source="q4BTK1dGNXAb8OCcBCUD-37" target="q4BTK1dGNXAb8OCcBCUD-40">
          <mxGeometry relative="1" as="geometry" />
        </mxCell>
        <mxCell id="q4BTK1dGNXAb8OCcBCUD-45" value="1" style="edgeLabel;html=1;align=center;verticalAlign=middle;resizable=0;points=[];" vertex="1" connectable="0" parent="q4BTK1dGNXAb8OCcBCUD-43">
          <mxGeometry x="-0.24" relative="1" as="geometry">
            <mxPoint x="-9" y="-10" as="offset" />
          </mxGeometry>
        </mxCell>
        <mxCell id="q4BTK1dGNXAb8OCcBCUD-60" value="" style="edgeStyle=orthogonalEdgeStyle;rounded=0;orthogonalLoop=1;jettySize=auto;html=1;" edge="1" parent="1" source="q4BTK1dGNXAb8OCcBCUD-37" target="q4BTK1dGNXAb8OCcBCUD-39">
          <mxGeometry relative="1" as="geometry" />
        </mxCell>
        <mxCell id="q4BTK1dGNXAb8OCcBCUD-37" value="Encomenda" style="whiteSpace=wrap;html=1;align=center;" vertex="1" parent="1">
          <mxGeometry x="369" y="780" width="100" height="40" as="geometry" />
        </mxCell>
        <mxCell id="q4BTK1dGNXAb8OCcBCUD-38" value="Produto" style="whiteSpace=wrap;html=1;align=center;" vertex="1" parent="1">
          <mxGeometry x="680" y="780" width="100" height="40" as="geometry" />
        </mxCell>
        <mxCell id="q4BTK1dGNXAb8OCcBCUD-42" style="edgeStyle=orthogonalEdgeStyle;rounded=0;orthogonalLoop=1;jettySize=auto;html=1;entryX=0;entryY=0.5;entryDx=0;entryDy=0;endArrow=none;endFill=0;" edge="1" parent="1" source="q4BTK1dGNXAb8OCcBCUD-39" target="q4BTK1dGNXAb8OCcBCUD-37">
          <mxGeometry relative="1" as="geometry" />
        </mxCell>
        <mxCell id="q4BTK1dGNXAb8OCcBCUD-61" value="1" style="edgeLabel;html=1;align=center;verticalAlign=middle;resizable=0;points=[];" vertex="1" connectable="0" parent="q4BTK1dGNXAb8OCcBCUD-42">
          <mxGeometry x="0.0544" y="2" relative="1" as="geometry">
            <mxPoint x="13" y="-8" as="offset" />
          </mxGeometry>
        </mxCell>
        <mxCell id="q4BTK1dGNXAb8OCcBCUD-39" value="Faz" style="shape=rhombus;perimeter=rhombusPerimeter;whiteSpace=wrap;html=1;align=center;" vertex="1" parent="1">
          <mxGeometry x="200" y="770" width="120" height="60" as="geometry" />
        </mxCell>
        <mxCell id="q4BTK1dGNXAb8OCcBCUD-44" style="edgeStyle=orthogonalEdgeStyle;rounded=0;orthogonalLoop=1;jettySize=auto;html=1;entryX=0;entryY=0.5;entryDx=0;entryDy=0;endArrow=none;endFill=0;" edge="1" parent="1" source="q4BTK1dGNXAb8OCcBCUD-40" target="q4BTK1dGNXAb8OCcBCUD-38">
          <mxGeometry relative="1" as="geometry" />
        </mxCell>
        <mxCell id="q4BTK1dGNXAb8OCcBCUD-46" value="N" style="edgeLabel;html=1;align=center;verticalAlign=middle;resizable=0;points=[];" vertex="1" connectable="0" parent="q4BTK1dGNXAb8OCcBCUD-44">
          <mxGeometry x="0.1336" y="1" relative="1" as="geometry">
            <mxPoint x="8" y="-9" as="offset" />
          </mxGeometry>
        </mxCell>
        <mxCell id="q4BTK1dGNXAb8OCcBCUD-40" value="Pertence" style="shape=rhombus;perimeter=rhombusPerimeter;whiteSpace=wrap;html=1;align=center;" vertex="1" parent="1">
          <mxGeometry x="519" y="770" width="120" height="60" as="geometry" />
        </mxCell>
        <mxCell id="q4BTK1dGNXAb8OCcBCUD-48" style="edgeStyle=orthogonalEdgeStyle;rounded=0;orthogonalLoop=1;jettySize=auto;html=1;entryX=0;entryY=0.5;entryDx=0;entryDy=0;endArrow=none;endFill=0;startArrow=ERone;startFill=0;" edge="1" parent="1" source="q4BTK1dGNXAb8OCcBCUD-50" target="q4BTK1dGNXAb8OCcBCUD-56">
          <mxGeometry relative="1" as="geometry" />
        </mxCell>
        <mxCell id="q4BTK1dGNXAb8OCcBCUD-50" value="Cliente" style="whiteSpace=wrap;html=1;align=center;" vertex="1" parent="1">
          <mxGeometry x="40" y="890" width="100" height="40" as="geometry" />
        </mxCell>
        <mxCell id="q4BTK1dGNXAb8OCcBCUD-51" style="edgeStyle=orthogonalEdgeStyle;rounded=0;orthogonalLoop=1;jettySize=auto;html=1;entryX=0;entryY=0.5;entryDx=0;entryDy=0;endArrow=none;endFill=0;startArrow=ERone;startFill=0;" edge="1" parent="1" source="q4BTK1dGNXAb8OCcBCUD-53" target="q4BTK1dGNXAb8OCcBCUD-59">
          <mxGeometry relative="1" as="geometry" />
        </mxCell>
        <mxCell id="q4BTK1dGNXAb8OCcBCUD-53" value="Encomenda" style="whiteSpace=wrap;html=1;align=center;" vertex="1" parent="1">
          <mxGeometry x="369" y="890" width="100" height="40" as="geometry" />
        </mxCell>
        <mxCell id="q4BTK1dGNXAb8OCcBCUD-54" value="Produto" style="whiteSpace=wrap;html=1;align=center;" vertex="1" parent="1">
          <mxGeometry x="680" y="890" width="100" height="40" as="geometry" />
        </mxCell>
        <mxCell id="q4BTK1dGNXAb8OCcBCUD-55" style="edgeStyle=orthogonalEdgeStyle;rounded=0;orthogonalLoop=1;jettySize=auto;html=1;entryX=0;entryY=0.5;entryDx=0;entryDy=0;endArrow=ERone;endFill=0;" edge="1" parent="1" source="q4BTK1dGNXAb8OCcBCUD-56" target="q4BTK1dGNXAb8OCcBCUD-53">
          <mxGeometry relative="1" as="geometry" />
        </mxCell>
        <mxCell id="q4BTK1dGNXAb8OCcBCUD-56" value="Faz" style="shape=rhombus;perimeter=rhombusPerimeter;whiteSpace=wrap;html=1;align=center;" vertex="1" parent="1">
          <mxGeometry x="200" y="880" width="120" height="60" as="geometry" />
        </mxCell>
        <mxCell id="q4BTK1dGNXAb8OCcBCUD-57" style="edgeStyle=orthogonalEdgeStyle;rounded=0;orthogonalLoop=1;jettySize=auto;html=1;entryX=0;entryY=0.5;entryDx=0;entryDy=0;endArrow=ERmany;endFill=0;" edge="1" parent="1" source="q4BTK1dGNXAb8OCcBCUD-59" target="q4BTK1dGNXAb8OCcBCUD-54">
          <mxGeometry relative="1" as="geometry" />
        </mxCell>
        <mxCell id="q4BTK1dGNXAb8OCcBCUD-59" value="Pertence" style="shape=rhombus;perimeter=rhombusPerimeter;whiteSpace=wrap;html=1;align=center;" vertex="1" parent="1">
          <mxGeometry x="519" y="880" width="120" height="60" as="geometry" />
        </mxCell>
        <mxCell id="q4BTK1dGNXAb8OCcBCUD-62" value="&lt;font color=&quot;#2ca128&quot; style=&quot;background-color: rgb(204, 204, 204);&quot;&gt;&lt;b&gt;CONVENÇÃO MAIS UTILIZADA&lt;/b&gt;&lt;/font&gt;" style="text;html=1;align=center;verticalAlign=middle;resizable=0;points=[];autosize=1;strokeColor=none;fillColor=none;" vertex="1" parent="1">
          <mxGeometry x="314" y="960" width="200" height="30" as="geometry" />
        </mxCell>
        <mxCell id="q4BTK1dGNXAb8OCcBCUD-63" value="&lt;font color=&quot;#ff0000&quot; style=&quot;background-color: rgb(204, 204, 204);&quot;&gt;&lt;b&gt;CONVENÇÃO MENOS UTILIZADA&lt;/b&gt;&lt;/font&gt;" style="text;html=1;align=center;verticalAlign=middle;resizable=0;points=[];autosize=1;strokeColor=none;fillColor=none;" vertex="1" parent="1">
          <mxGeometry x="309" y="710" width="220" height="30" as="geometry" />
        </mxCell>
        <mxCell id="q4BTK1dGNXAb8OCcBCUD-64" value="Relacao 1 para 1&lt;span style=&quot;background-color: initial;&quot;&gt;.&lt;/span&gt;" style="text;html=1;align=center;verticalAlign=middle;resizable=0;points=[];autosize=1;strokeColor=#d6b656;fillColor=#fff2cc;" vertex="1" parent="1">
          <mxGeometry x="359" y="150" width="120" height="30" as="geometry" />
        </mxCell>
      </root>
    </mxGraphModel>
  </diagram>
</mxfile>
